<svg width="23" height="23" viewBox="0 0 56 54" fill="none" xmlns="http://www.w3.org/2000/svg">
<path d="M55.818 20.5779C55.7 20.2159 55.387 19.9519 55.01 19.8969L36.92 17.2679L28.83 0.875871C28.662 0.533871 28.314 0.317871 27.934 0.317871C27.554 0.317871 27.205 0.533871 27.038 0.875871L18.947 17.2689L0.857026 19.8979C0.480026 19.9529 0.168026 20.2159 0.0490256 20.5789C-0.0679744 20.9399 0.0290256 21.3379 0.302026 21.6029L13.393 34.3629L10.302 52.3809C10.238 52.7559 10.392 53.1349 10.699 53.3589C11.008 53.5849 11.417 53.6139 11.752 53.4349L27.934 44.9289L44.114 53.4349C44.26 53.5119 44.421 53.5499 44.58 53.5499C44.787 53.5499 44.993 53.4859 45.168 53.3589C45.476 53.1349 45.63 52.7559 45.565 52.3809L42.475 34.3639L55.566 21.6029C55.838 21.3359 55.936 20.9389 55.818 20.5779Z" fill="#DCE011"/>
</svg>
